<mxfile host="app.diagrams.net" modified="2022-06-05T09:38:06.919Z" agent="5.0 (X11)" etag="9AJlpIlDGwOoynkXM_mu" version="18.2.0" type="github">
  <diagram name="Page-1" id="13e1069c-82ec-6db2-03f1-153e76fe0fe0">
    <mxGraphModel dx="2276" dy="517" grid="1" gridSize="10" guides="1" tooltips="1" connect="1" arrows="1" fold="1" page="1" pageScale="1" pageWidth="1100" pageHeight="850" background="none" math="0" shadow="0">
      <root>
        <mxCell id="0" />
        <mxCell id="1" parent="0" />
        <mxCell id="7baba1c4bc27f4b0-2" value="Services zoom option listener" style="shape=umlLifeline;perimeter=lifelinePerimeter;whiteSpace=wrap;html=1;container=1;collapsible=0;recursiveResize=0;outlineConnect=0;rounded=1;shadow=0;comic=0;labelBackgroundColor=none;strokeWidth=1;fontFamily=Verdana;fontSize=12;align=center;" parent="1" vertex="1">
          <mxGeometry x="70" y="500" width="120" height="1780" as="geometry" />
        </mxCell>
        <mxCell id="rIxlhnQxZbPpuqp4VgZC-11" value="" style="html=1;points=[];perimeter=orthogonalPerimeter;" vertex="1" parent="7baba1c4bc27f4b0-2">
          <mxGeometry x="55" y="1510" width="10" height="40" as="geometry" />
        </mxCell>
        <mxCell id="rIxlhnQxZbPpuqp4VgZC-12" value="getChildren(item)" style="edgeStyle=orthogonalEdgeStyle;html=1;align=left;spacingLeft=2;endArrow=block;rounded=0;entryX=1;entryY=0;" edge="1" target="rIxlhnQxZbPpuqp4VgZC-11" parent="7baba1c4bc27f4b0-2" source="7baba1c4bc27f4b0-2">
          <mxGeometry relative="1" as="geometry">
            <mxPoint x="320" y="1480" as="sourcePoint" />
            <Array as="points">
              <mxPoint x="130" y="1480" />
              <mxPoint x="130" y="1510" />
            </Array>
          </mxGeometry>
        </mxCell>
        <mxCell id="7baba1c4bc27f4b0-3" value="selected list" style="shape=umlLifeline;perimeter=lifelinePerimeter;whiteSpace=wrap;html=1;container=1;collapsible=0;recursiveResize=0;outlineConnect=0;rounded=1;shadow=0;comic=0;labelBackgroundColor=none;strokeWidth=1;fontFamily=Verdana;fontSize=12;align=center;" parent="1" vertex="1">
          <mxGeometry x="300" y="500" width="120" height="1780" as="geometry" />
        </mxCell>
        <mxCell id="A2il4XtOZDyBoMQwtoZe-37" value="" style="html=1;points=[];perimeter=orthogonalPerimeter;" parent="7baba1c4bc27f4b0-3" vertex="1">
          <mxGeometry x="55" y="570" width="10" height="80" as="geometry" />
        </mxCell>
        <mxCell id="DnMo0Ate2NdBYwA-RyRV-13" value="" style="html=1;points=[];perimeter=orthogonalPerimeter;" parent="7baba1c4bc27f4b0-3" vertex="1">
          <mxGeometry x="55" y="910" width="10" height="30" as="geometry" />
        </mxCell>
        <mxCell id="7baba1c4bc27f4b0-4" value="GUI facade" style="shape=umlLifeline;perimeter=lifelinePerimeter;whiteSpace=wrap;html=1;container=1;collapsible=0;recursiveResize=0;outlineConnect=0;rounded=1;shadow=0;comic=0;labelBackgroundColor=none;strokeWidth=1;fontFamily=Verdana;fontSize=12;align=center;" parent="1" vertex="1">
          <mxGeometry x="530" y="500" width="110" height="1780" as="geometry" />
        </mxCell>
        <mxCell id="A2il4XtOZDyBoMQwtoZe-4" value="" style="rounded=0;whiteSpace=wrap;html=1;" parent="7baba1c4bc27f4b0-4" vertex="1">
          <mxGeometry x="50" y="60" width="10" height="310" as="geometry" />
        </mxCell>
        <mxCell id="A2il4XtOZDyBoMQwtoZe-42" value="" style="html=1;points=[];perimeter=orthogonalPerimeter;" parent="7baba1c4bc27f4b0-4" vertex="1">
          <mxGeometry x="50" y="685" width="10" height="215" as="geometry" />
        </mxCell>
        <mxCell id="DnMo0Ate2NdBYwA-RyRV-2" value="" style="html=1;points=[];perimeter=orthogonalPerimeter;" parent="7baba1c4bc27f4b0-4" vertex="1">
          <mxGeometry x="50" y="1030" width="10" height="420" as="geometry" />
        </mxCell>
        <mxCell id="DnMo0Ate2NdBYwA-RyRV-22" value="makeSelected(item)" style="html=1;verticalAlign=bottom;endArrow=block;rounded=0;" parent="7baba1c4bc27f4b0-4" target="7baba1c4bc27f4b0-8" edge="1">
          <mxGeometry width="80" relative="1" as="geometry">
            <mxPoint x="50" y="1250" as="sourcePoint" />
            <mxPoint x="-30" y="1250" as="targetPoint" />
          </mxGeometry>
        </mxCell>
        <mxCell id="rIxlhnQxZbPpuqp4VgZC-2" value="" style="html=1;points=[];perimeter=orthogonalPerimeter;" vertex="1" parent="7baba1c4bc27f4b0-4">
          <mxGeometry x="50" y="420" width="10" height="80" as="geometry" />
        </mxCell>
        <mxCell id="7baba1c4bc27f4b0-5" value="back-end facade" style="shape=umlLifeline;perimeter=lifelinePerimeter;whiteSpace=wrap;html=1;container=1;collapsible=0;recursiveResize=0;outlineConnect=0;rounded=1;shadow=0;comic=0;labelBackgroundColor=none;strokeWidth=1;fontFamily=Verdana;fontSize=12;align=center;" parent="1" vertex="1">
          <mxGeometry x="670" y="500" width="100" height="1780" as="geometry" />
        </mxCell>
        <mxCell id="A2il4XtOZDyBoMQwtoZe-20" value="" style="html=1;points=[];perimeter=orthogonalPerimeter;" parent="7baba1c4bc27f4b0-5" vertex="1">
          <mxGeometry x="45" y="60" width="10" height="260" as="geometry" />
        </mxCell>
        <mxCell id="_kfR-0WJ66qb-hTr2rVh-1" value="addRule(item)" style="html=1;verticalAlign=bottom;endArrow=block;rounded=0;" parent="7baba1c4bc27f4b0-5" target="7baba1c4bc27f4b0-6" edge="1">
          <mxGeometry width="80" relative="1" as="geometry">
            <mxPoint x="45" y="827" as="sourcePoint" />
            <mxPoint x="125" y="827" as="targetPoint" />
          </mxGeometry>
        </mxCell>
        <mxCell id="_kfR-0WJ66qb-hTr2rVh-4" value="" style="html=1;points=[];perimeter=orthogonalPerimeter;" parent="7baba1c4bc27f4b0-5" vertex="1">
          <mxGeometry x="45" y="810" width="10" height="50" as="geometry" />
        </mxCell>
        <mxCell id="DnMo0Ate2NdBYwA-RyRV-5" value="" style="html=1;points=[];perimeter=orthogonalPerimeter;" parent="7baba1c4bc27f4b0-5" vertex="1">
          <mxGeometry x="45" y="1040" width="10" height="410" as="geometry" />
        </mxCell>
        <mxCell id="DnMo0Ate2NdBYwA-RyRV-26" value="return" style="html=1;verticalAlign=bottom;endArrow=open;dashed=1;endSize=8;rounded=0;" parent="7baba1c4bc27f4b0-5" target="7baba1c4bc27f4b0-4" edge="1">
          <mxGeometry relative="1" as="geometry">
            <mxPoint x="45" y="1320" as="sourcePoint" />
            <mxPoint x="-35" y="1320" as="targetPoint" />
          </mxGeometry>
        </mxCell>
        <mxCell id="rIxlhnQxZbPpuqp4VgZC-5" value="" style="html=1;points=[];perimeter=orthogonalPerimeter;" vertex="1" parent="7baba1c4bc27f4b0-5">
          <mxGeometry x="45" y="420" width="10" height="30" as="geometry" />
        </mxCell>
        <mxCell id="7baba1c4bc27f4b0-6" value="filter" style="shape=umlLifeline;perimeter=lifelinePerimeter;whiteSpace=wrap;html=1;container=1;collapsible=0;recursiveResize=0;outlineConnect=0;rounded=1;shadow=0;comic=0;labelBackgroundColor=none;strokeWidth=1;fontFamily=Verdana;fontSize=12;align=center;" parent="1" vertex="1">
          <mxGeometry x="830" y="680" width="100" height="1600" as="geometry" />
        </mxCell>
        <mxCell id="A2il4XtOZDyBoMQwtoZe-17" value="" style="html=1;points=[];perimeter=orthogonalPerimeter;" parent="7baba1c4bc27f4b0-6" vertex="1">
          <mxGeometry x="45" y="50" width="10" height="80" as="geometry" />
        </mxCell>
        <mxCell id="A2il4XtOZDyBoMQwtoZe-50" value="" style="html=1;points=[];perimeter=orthogonalPerimeter;" parent="7baba1c4bc27f4b0-6" vertex="1">
          <mxGeometry x="45" y="640" width="10" height="35" as="geometry" />
        </mxCell>
        <mxCell id="DnMo0Ate2NdBYwA-RyRV-9" value="" style="html=1;points=[];perimeter=orthogonalPerimeter;" parent="7baba1c4bc27f4b0-6" vertex="1">
          <mxGeometry x="45" y="870" width="10" height="80" as="geometry" />
        </mxCell>
        <mxCell id="DnMo0Ate2NdBYwA-RyRV-18" value="" style="html=1;points=[];perimeter=orthogonalPerimeter;" parent="7baba1c4bc27f4b0-6" vertex="1">
          <mxGeometry x="45" y="980" width="10" height="80" as="geometry" />
        </mxCell>
        <mxCell id="7baba1c4bc27f4b0-7" value="&lt;div&gt;Adapter&lt;/div&gt;&lt;div&gt;API-fetcher&lt;/div&gt;" style="shape=umlLifeline;perimeter=lifelinePerimeter;whiteSpace=wrap;html=1;container=1;collapsible=0;recursiveResize=0;outlineConnect=0;rounded=1;shadow=0;comic=0;labelBackgroundColor=none;strokeWidth=1;fontFamily=Verdana;fontSize=12;align=center;" parent="1" vertex="1">
          <mxGeometry x="960" y="500" width="90" height="1460" as="geometry" />
        </mxCell>
        <mxCell id="A2il4XtOZDyBoMQwtoZe-36" value="" style="html=1;points=[];perimeter=orthogonalPerimeter;" parent="7baba1c4bc27f4b0-7" vertex="1">
          <mxGeometry x="40" y="60" width="10" height="30" as="geometry" />
        </mxCell>
        <mxCell id="7baba1c4bc27f4b0-8" value="component selection listener" style="shape=umlLifeline;perimeter=lifelinePerimeter;whiteSpace=wrap;html=1;container=1;collapsible=0;recursiveResize=0;outlineConnect=0;rounded=1;shadow=0;comic=0;labelBackgroundColor=none;strokeWidth=1;fontFamily=Verdana;fontSize=12;align=center;" parent="1" vertex="1">
          <mxGeometry x="-40" y="500" width="100" height="1780" as="geometry" />
        </mxCell>
        <mxCell id="A2il4XtOZDyBoMQwtoZe-40" value="" style="html=1;points=[];perimeter=orthogonalPerimeter;" parent="7baba1c4bc27f4b0-8" vertex="1">
          <mxGeometry x="45" y="570" width="10" height="130" as="geometry" />
        </mxCell>
        <mxCell id="DnMo0Ate2NdBYwA-RyRV-15" value="" style="html=1;points=[];perimeter=orthogonalPerimeter;" parent="7baba1c4bc27f4b0-8" vertex="1">
          <mxGeometry x="45" y="910" width="10" height="140" as="geometry" />
        </mxCell>
        <mxCell id="F9nA0inBSzudjQZXVVhW-46" value="return" style="html=1;verticalAlign=bottom;endArrow=open;dashed=1;endSize=8;rounded=0;exitX=-0.2;exitY=0.967;exitDx=0;exitDy=0;exitPerimeter=0;" parent="1" target="7baba1c4bc27f4b0-5" edge="1" source="A2il4XtOZDyBoMQwtoZe-36">
          <mxGeometry x="-0.0808" y="1" relative="1" as="geometry">
            <mxPoint x="1010" y="650" as="sourcePoint" />
            <mxPoint x="900" y="650" as="targetPoint" />
            <Array as="points">
              <mxPoint x="960" y="589" />
            </Array>
            <mxPoint as="offset" />
          </mxGeometry>
        </mxCell>
        <mxCell id="F9nA0inBSzudjQZXVVhW-48" value="return" style="html=1;verticalAlign=bottom;endArrow=open;dashed=1;endSize=8;rounded=0;" parent="1" edge="1">
          <mxGeometry relative="1" as="geometry">
            <mxPoint x="720" y="810" as="sourcePoint" />
            <mxPoint x="584.5" y="810" as="targetPoint" />
          </mxGeometry>
        </mxCell>
        <mxCell id="F9nA0inBSzudjQZXVVhW-49" value="showItems(items)" style="html=1;verticalAlign=bottom;endArrow=block;rounded=0;" parent="1" edge="1">
          <mxGeometry width="80" relative="1" as="geometry">
            <mxPoint x="575" y="849" as="sourcePoint" />
            <mxPoint x="15" y="849" as="targetPoint" />
          </mxGeometry>
        </mxCell>
        <mxCell id="A2il4XtOZDyBoMQwtoZe-8" value="create(items)" style="html=1;verticalAlign=bottom;endArrow=block;rounded=0;exitX=0.9;exitY=0.585;exitDx=0;exitDy=0;exitPerimeter=0;" parent="1" source="A2il4XtOZDyBoMQwtoZe-20" edge="1">
          <mxGeometry width="80" relative="1" as="geometry">
            <mxPoint x="715" y="600" as="sourcePoint" />
            <mxPoint x="830" y="712" as="targetPoint" />
            <Array as="points">
              <mxPoint x="800" y="712" />
            </Array>
          </mxGeometry>
        </mxCell>
        <mxCell id="A2il4XtOZDyBoMQwtoZe-10" value="Decoder" style="shape=umlLifeline;perimeter=lifelinePerimeter;whiteSpace=wrap;html=1;container=1;collapsible=0;recursiveResize=0;outlineConnect=0;rounded=1;shadow=0;comic=0;labelBackgroundColor=none;strokeWidth=1;fontFamily=Verdana;fontSize=12;align=center;" parent="1" vertex="1">
          <mxGeometry x="1060" y="500" width="90" height="1460" as="geometry" />
        </mxCell>
        <mxCell id="A2il4XtOZDyBoMQwtoZe-13" value="" style="html=1;points=[];perimeter=orthogonalPerimeter;" parent="A2il4XtOZDyBoMQwtoZe-10" vertex="1">
          <mxGeometry x="40" y="110" width="10" height="50" as="geometry" />
        </mxCell>
        <mxCell id="A2il4XtOZDyBoMQwtoZe-14" value="objectify(countryjson, providersjson)" style="html=1;verticalAlign=bottom;endArrow=block;rounded=0;entryX=0;entryY=0.06;entryDx=0;entryDy=0;entryPerimeter=0;" parent="1" target="A2il4XtOZDyBoMQwtoZe-13" edge="1" source="7baba1c4bc27f4b0-5">
          <mxGeometry x="-0.0512" relative="1" as="geometry">
            <mxPoint x="879.5" y="670" as="sourcePoint" />
            <mxPoint as="offset" />
          </mxGeometry>
        </mxCell>
        <mxCell id="A2il4XtOZDyBoMQwtoZe-15" value="return" style="html=1;verticalAlign=bottom;endArrow=open;dashed=1;endSize=8;exitX=0;exitY=0.95;rounded=0;" parent="1" source="A2il4XtOZDyBoMQwtoZe-13" target="7baba1c4bc27f4b0-5" edge="1">
          <mxGeometry relative="1" as="geometry">
            <mxPoint x="879.5" y="746" as="targetPoint" />
          </mxGeometry>
        </mxCell>
        <mxCell id="A2il4XtOZDyBoMQwtoZe-18" value="getList()" style="html=1;verticalAlign=bottom;endArrow=block;entryX=0;entryY=0;rounded=0;" parent="1" source="7baba1c4bc27f4b0-5" target="A2il4XtOZDyBoMQwtoZe-17" edge="1">
          <mxGeometry relative="1" as="geometry">
            <mxPoint x="805" y="740" as="sourcePoint" />
          </mxGeometry>
        </mxCell>
        <mxCell id="A2il4XtOZDyBoMQwtoZe-19" value="return" style="html=1;verticalAlign=bottom;endArrow=open;dashed=1;endSize=8;exitX=0;exitY=0.95;rounded=0;" parent="1" source="A2il4XtOZDyBoMQwtoZe-17" target="7baba1c4bc27f4b0-5" edge="1">
          <mxGeometry relative="1" as="geometry">
            <mxPoint x="805" y="816" as="targetPoint" />
          </mxGeometry>
        </mxCell>
        <mxCell id="A2il4XtOZDyBoMQwtoZe-22" value="component category selection listener" style="shape=umlLifeline;perimeter=lifelinePerimeter;whiteSpace=wrap;html=1;container=1;collapsible=0;recursiveResize=0;outlineConnect=0;rounded=1;shadow=0;comic=0;labelBackgroundColor=none;strokeWidth=1;fontFamily=Verdana;fontSize=12;align=center;size=50;" parent="1" vertex="1">
          <mxGeometry x="-180" y="490" width="110" height="1790" as="geometry" />
        </mxCell>
        <mxCell id="A2il4XtOZDyBoMQwtoZe-23" value="filtering start" style="shape=umlFrame;whiteSpace=wrap;html=1;" parent="1" vertex="1">
          <mxGeometry x="-190" y="540" width="1450" height="340" as="geometry" />
        </mxCell>
        <mxCell id="A2il4XtOZDyBoMQwtoZe-24" value="category view change" style="shape=umlFrame;whiteSpace=wrap;html=1;width=60;height=40;" parent="1" vertex="1">
          <mxGeometry x="-190" y="900" width="1450" height="120" as="geometry" />
        </mxCell>
        <mxCell id="A2il4XtOZDyBoMQwtoZe-25" value="" style="html=1;points=[];perimeter=orthogonalPerimeter;" parent="1" vertex="1">
          <mxGeometry x="-130" y="920" width="10" height="80" as="geometry" />
        </mxCell>
        <mxCell id="A2il4XtOZDyBoMQwtoZe-33" value="" style="edgeStyle=elbowEdgeStyle;elbow=horizontal;endArrow=classic;html=1;rounded=0;exitX=1.1;exitY=0.6;exitDx=0;exitDy=0;exitPerimeter=0;" parent="1" edge="1" source="A2il4XtOZDyBoMQwtoZe-25">
          <mxGeometry width="50" height="50" relative="1" as="geometry">
            <mxPoint x="-120" y="937.5" as="sourcePoint" />
            <mxPoint x="-120" y="982.5" as="targetPoint" />
            <Array as="points">
              <mxPoint x="-60" y="962.5" />
            </Array>
          </mxGeometry>
        </mxCell>
        <mxCell id="A2il4XtOZDyBoMQwtoZe-35" value="UpdateCategory(Category)" style="text;html=1;align=center;verticalAlign=middle;resizable=0;points=[];autosize=1;strokeColor=none;fillColor=none;" parent="1" vertex="1">
          <mxGeometry x="-120" y="950" width="160" height="20" as="geometry" />
        </mxCell>
        <mxCell id="A2il4XtOZDyBoMQwtoZe-38" value="addSelectedItem(item)" style="html=1;verticalAlign=bottom;endArrow=block;entryX=0;entryY=0;rounded=0;" parent="1" source="7baba1c4bc27f4b0-8" target="A2il4XtOZDyBoMQwtoZe-37" edge="1">
          <mxGeometry relative="1" as="geometry">
            <mxPoint x="280" y="1070" as="sourcePoint" />
          </mxGeometry>
        </mxCell>
        <mxCell id="A2il4XtOZDyBoMQwtoZe-41" value="toggleSelection(item)" style="html=1;verticalAlign=bottom;endArrow=block;rounded=0;" parent="1" target="7baba1c4bc27f4b0-4" edge="1">
          <mxGeometry width="80" relative="1" as="geometry">
            <mxPoint x="10" y="1200" as="sourcePoint" />
            <mxPoint x="90" y="1200" as="targetPoint" />
          </mxGeometry>
        </mxCell>
        <mxCell id="A2il4XtOZDyBoMQwtoZe-51" value="addRule(item)" style="html=1;verticalAlign=bottom;endArrow=block;rounded=0;exitX=1.7;exitY=0.647;exitDx=0;exitDy=0;exitPerimeter=0;entryX=-0.4;entryY=0.28;entryDx=0;entryDy=0;entryPerimeter=0;" parent="1" source="A2il4XtOZDyBoMQwtoZe-42" target="_kfR-0WJ66qb-hTr2rVh-4" edge="1">
          <mxGeometry x="0.1053" relative="1" as="geometry">
            <mxPoint x="805" y="1275" as="sourcePoint" />
            <mxPoint as="offset" />
          </mxGeometry>
        </mxCell>
        <mxCell id="A2il4XtOZDyBoMQwtoZe-52" value="return" style="html=1;verticalAlign=bottom;endArrow=open;dashed=1;endSize=8;exitX=0;exitY=0.95;rounded=0;" parent="1" source="A2il4XtOZDyBoMQwtoZe-50" target="7baba1c4bc27f4b0-5" edge="1">
          <mxGeometry relative="1" as="geometry">
            <mxPoint x="805" y="1351" as="targetPoint" />
          </mxGeometry>
        </mxCell>
        <mxCell id="A2il4XtOZDyBoMQwtoZe-53" value="updateSelectables(SelectableList)" style="html=1;verticalAlign=bottom;endArrow=block;rounded=0;" parent="1" target="7baba1c4bc27f4b0-8" edge="1">
          <mxGeometry width="80" relative="1" as="geometry">
            <mxPoint x="585" y="1370" as="sourcePoint" />
            <mxPoint x="505" y="1370" as="targetPoint" />
          </mxGeometry>
        </mxCell>
        <mxCell id="A2il4XtOZDyBoMQwtoZe-56" value="item selection event" style="shape=umlFrame;whiteSpace=wrap;html=1;width=120;height=60;" parent="1" vertex="1">
          <mxGeometry x="-190" y="1040" width="1330" height="360" as="geometry" />
        </mxCell>
        <mxCell id="A2il4XtOZDyBoMQwtoZe-69" value="Selected view" style="shape=umlFrame;whiteSpace=wrap;html=1;" parent="1" vertex="1">
          <mxGeometry x="100" y="1950" width="190" height="110" as="geometry" />
        </mxCell>
        <mxCell id="F9nA0inBSzudjQZXVVhW-44" value="&lt;div&gt;startFilter()&lt;/div&gt;" style="html=1;verticalAlign=bottom;endArrow=block;rounded=0;" parent="1" edge="1">
          <mxGeometry width="80" relative="1" as="geometry">
            <mxPoint x="580" y="560" as="sourcePoint" />
            <mxPoint x="719.5" y="560" as="targetPoint" />
          </mxGeometry>
        </mxCell>
        <mxCell id="F9nA0inBSzudjQZXVVhW-50" value="displayitems(items)" style="html=1;verticalAlign=bottom;endArrow=block;rounded=0;" parent="1" edge="1">
          <mxGeometry x="0.2431" width="80" relative="1" as="geometry">
            <mxPoint x="580" y="870" as="sourcePoint" />
            <mxPoint x="130" y="870" as="targetPoint" />
            <Array as="points">
              <mxPoint x="440" y="870" />
              <mxPoint x="410" y="870" />
            </Array>
            <mxPoint as="offset" />
          </mxGeometry>
        </mxCell>
        <mxCell id="_kfR-0WJ66qb-hTr2rVh-2" value="return" style="html=1;verticalAlign=bottom;endArrow=open;dashed=1;endSize=8;rounded=0;" parent="1" source="7baba1c4bc27f4b0-5" edge="1">
          <mxGeometry relative="1" as="geometry">
            <mxPoint x="670" y="1360" as="sourcePoint" />
            <mxPoint x="590" y="1360" as="targetPoint" />
          </mxGeometry>
        </mxCell>
        <mxCell id="DnMo0Ate2NdBYwA-RyRV-3" value="toggleSelection(item)" style="html=1;verticalAlign=bottom;endArrow=block;entryX=0;entryY=0;rounded=0;" parent="1" target="DnMo0Ate2NdBYwA-RyRV-2" edge="1">
          <mxGeometry relative="1" as="geometry">
            <mxPoint x="9.5" y="1530.0000000000002" as="sourcePoint" />
          </mxGeometry>
        </mxCell>
        <mxCell id="DnMo0Ate2NdBYwA-RyRV-6" value="removeRule(item)" style="html=1;verticalAlign=bottom;startArrow=oval;endArrow=block;startSize=8;rounded=0;" parent="1" target="DnMo0Ate2NdBYwA-RyRV-5" edge="1">
          <mxGeometry relative="1" as="geometry">
            <mxPoint x="584.5" y="1540" as="sourcePoint" />
          </mxGeometry>
        </mxCell>
        <mxCell id="DnMo0Ate2NdBYwA-RyRV-10" value="removeRule(item)" style="html=1;verticalAlign=bottom;endArrow=block;entryX=0;entryY=0;rounded=0;" parent="1" target="DnMo0Ate2NdBYwA-RyRV-9" edge="1">
          <mxGeometry relative="1" as="geometry">
            <mxPoint x="719.5" y="1550" as="sourcePoint" />
          </mxGeometry>
        </mxCell>
        <mxCell id="DnMo0Ate2NdBYwA-RyRV-11" value="return" style="html=1;verticalAlign=bottom;endArrow=open;dashed=1;endSize=8;exitX=0;exitY=0.95;rounded=0;" parent="1" source="DnMo0Ate2NdBYwA-RyRV-9" edge="1">
          <mxGeometry relative="1" as="geometry">
            <mxPoint x="719.5" y="1626" as="targetPoint" />
          </mxGeometry>
        </mxCell>
        <mxCell id="DnMo0Ate2NdBYwA-RyRV-14" value="removeSelectedItem(item)" style="html=1;verticalAlign=bottom;startArrow=oval;endArrow=block;startSize=8;rounded=0;" parent="1" source="7baba1c4bc27f4b0-8" target="DnMo0Ate2NdBYwA-RyRV-13" edge="1">
          <mxGeometry relative="1" as="geometry">
            <mxPoint x="295" y="1400" as="sourcePoint" />
            <Array as="points">
              <mxPoint x="120" y="1420" />
            </Array>
          </mxGeometry>
        </mxCell>
        <mxCell id="DnMo0Ate2NdBYwA-RyRV-19" value="addRule(item)" style="html=1;verticalAlign=bottom;endArrow=block;entryX=0;entryY=0;rounded=0;" parent="1" source="7baba1c4bc27f4b0-5" target="DnMo0Ate2NdBYwA-RyRV-18" edge="1">
          <mxGeometry relative="1" as="geometry">
            <mxPoint x="410" y="1710" as="sourcePoint" />
          </mxGeometry>
        </mxCell>
        <mxCell id="DnMo0Ate2NdBYwA-RyRV-20" value="return" style="html=1;verticalAlign=bottom;endArrow=open;dashed=1;endSize=8;exitX=0;exitY=0.95;rounded=0;" parent="1" source="DnMo0Ate2NdBYwA-RyRV-18" target="7baba1c4bc27f4b0-5" edge="1">
          <mxGeometry relative="1" as="geometry">
            <mxPoint x="410" y="1786" as="targetPoint" />
          </mxGeometry>
        </mxCell>
        <mxCell id="DnMo0Ate2NdBYwA-RyRV-21" value="return" style="html=1;verticalAlign=bottom;endArrow=open;dashed=1;endSize=8;rounded=0;" parent="1" target="7baba1c4bc27f4b0-4" edge="1">
          <mxGeometry relative="1" as="geometry">
            <mxPoint x="720" y="1730" as="sourcePoint" />
            <mxPoint x="640" y="1730" as="targetPoint" />
            <Array as="points">
              <mxPoint x="690" y="1730" />
            </Array>
          </mxGeometry>
        </mxCell>
        <mxCell id="DnMo0Ate2NdBYwA-RyRV-24" value="addSelectedItem(item)" style="html=1;verticalAlign=bottom;endArrow=block;rounded=0;" parent="1" source="7baba1c4bc27f4b0-4" target="7baba1c4bc27f4b0-3" edge="1">
          <mxGeometry width="80" relative="1" as="geometry">
            <mxPoint x="490" y="1810" as="sourcePoint" />
            <mxPoint x="410" y="1810" as="targetPoint" />
            <Array as="points">
              <mxPoint x="550" y="1780" />
            </Array>
          </mxGeometry>
        </mxCell>
        <mxCell id="DnMo0Ate2NdBYwA-RyRV-25" value="the list of returned services is empty" style="shape=umlFrame;whiteSpace=wrap;html=1;width=70;height=60;" parent="1" vertex="1">
          <mxGeometry x="-50" y="1630" width="990" height="170" as="geometry" />
        </mxCell>
        <mxCell id="DnMo0Ate2NdBYwA-RyRV-28" value="updateSelectable(SelectableList)" style="html=1;verticalAlign=bottom;endArrow=block;rounded=0;exitX=1;exitY=0.86;exitDx=0;exitDy=0;exitPerimeter=0;" parent="1" source="DnMo0Ate2NdBYwA-RyRV-2" target="7baba1c4bc27f4b0-8" edge="1">
          <mxGeometry width="80" relative="1" as="geometry">
            <mxPoint x="440" y="1890" as="sourcePoint" />
            <mxPoint x="520" y="1890" as="targetPoint" />
          </mxGeometry>
        </mxCell>
        <mxCell id="DnMo0Ate2NdBYwA-RyRV-29" value="the list of returned services is not empty" style="shape=umlFrame;whiteSpace=wrap;html=1;width=70;height=60;" parent="1" vertex="1">
          <mxGeometry x="-50" y="1800" width="990" height="150" as="geometry" />
        </mxCell>
        <mxCell id="rIxlhnQxZbPpuqp4VgZC-1" value="updateSelected(itemslist)" style="html=1;verticalAlign=bottom;labelBackgroundColor=none;endArrow=open;endFill=0;rounded=0;exitX=0;exitY=0.953;exitDx=0;exitDy=0;exitPerimeter=0;" edge="1" parent="1" source="A2il4XtOZDyBoMQwtoZe-42" target="7baba1c4bc27f4b0-2">
          <mxGeometry width="160" relative="1" as="geometry">
            <mxPoint x="380" y="1250" as="sourcePoint" />
            <mxPoint x="540" y="1250" as="targetPoint" />
          </mxGeometry>
        </mxCell>
        <mxCell id="A2il4XtOZDyBoMQwtoZe-12" value="getServices()" style="html=1;verticalAlign=bottom;endArrow=block;rounded=0;exitX=1.1;exitY=0.035;exitDx=0;exitDy=0;exitPerimeter=0;entryX=-0.1;entryY=0.267;entryDx=0;entryDy=0;entryPerimeter=0;" parent="1" target="A2il4XtOZDyBoMQwtoZe-36" edge="1" source="A2il4XtOZDyBoMQwtoZe-20">
          <mxGeometry width="80" relative="1" as="geometry">
            <mxPoint x="880" y="624.5" as="sourcePoint" />
            <mxPoint x="960" y="624.5" as="targetPoint" />
            <Array as="points" />
          </mxGeometry>
        </mxCell>
        <mxCell id="rIxlhnQxZbPpuqp4VgZC-3" value="updateItemList(itemType)" style="html=1;verticalAlign=bottom;endArrow=block;entryX=0;entryY=0;rounded=0;" edge="1" target="rIxlhnQxZbPpuqp4VgZC-2" parent="1" source="A2il4XtOZDyBoMQwtoZe-22">
          <mxGeometry relative="1" as="geometry">
            <mxPoint x="645" y="920" as="sourcePoint" />
          </mxGeometry>
        </mxCell>
        <mxCell id="rIxlhnQxZbPpuqp4VgZC-7" value="return" style="html=1;verticalAlign=bottom;endArrow=open;dashed=1;endSize=8;exitX=0;exitY=0.95;rounded=0;" edge="1" source="rIxlhnQxZbPpuqp4VgZC-5" parent="1" target="7baba1c4bc27f4b0-4">
          <mxGeometry relative="1" as="geometry">
            <mxPoint x="645" y="996" as="targetPoint" />
          </mxGeometry>
        </mxCell>
        <mxCell id="rIxlhnQxZbPpuqp4VgZC-6" value="getSelectableLis(itemType)t" style="html=1;verticalAlign=bottom;endArrow=block;entryX=0;entryY=0;rounded=0;" edge="1" target="rIxlhnQxZbPpuqp4VgZC-5" parent="1" source="7baba1c4bc27f4b0-4">
          <mxGeometry relative="1" as="geometry">
            <mxPoint x="645" y="920" as="sourcePoint" />
          </mxGeometry>
        </mxCell>
        <mxCell id="rIxlhnQxZbPpuqp4VgZC-8" value="updateSelectables(itemList)" style="html=1;verticalAlign=bottom;endArrow=block;rounded=0;exitX=0.1;exitY=0.825;exitDx=0;exitDy=0;exitPerimeter=0;" edge="1" parent="1" source="rIxlhnQxZbPpuqp4VgZC-2" target="7baba1c4bc27f4b0-2">
          <mxGeometry width="80" relative="1" as="geometry">
            <mxPoint x="330" y="1030" as="sourcePoint" />
            <mxPoint x="410" y="1030" as="targetPoint" />
          </mxGeometry>
        </mxCell>
        <mxCell id="rIxlhnQxZbPpuqp4VgZC-9" value="&lt;div&gt;removing a &lt;br&gt;&lt;/div&gt;&lt;div&gt;selection&lt;br&gt;&lt;/div&gt;" style="shape=umlFrame;tabPosition=left;html=1;boundedLbl=1;labelInHeader=1;width=60;height=40;" vertex="1" parent="1">
          <mxGeometry x="-190" y="1400" width="1220" height="550" as="geometry" />
        </mxCell>
        <mxCell id="rIxlhnQxZbPpuqp4VgZC-13" value="updateSelectedList(items)" style="html=1;verticalAlign=bottom;endArrow=block;rounded=0;exitX=0.2;exitY=0.952;exitDx=0;exitDy=0;exitPerimeter=0;" edge="1" parent="1" source="DnMo0Ate2NdBYwA-RyRV-2" target="7baba1c4bc27f4b0-2">
          <mxGeometry width="80" relative="1" as="geometry">
            <mxPoint x="420" y="1840" as="sourcePoint" />
            <mxPoint x="500" y="1840" as="targetPoint" />
          </mxGeometry>
        </mxCell>
      </root>
    </mxGraphModel>
  </diagram>
</mxfile>
